<svg xmlns="http://www.w3.org/2000/svg" width="900" height="463" viewBox="0 0 900 463" role="img" aria-labelledby="title desc">
<title id="title">Variação em 7 dias: Investimentos EA FC: Franceses em 31/07 — PC</title>
<desc id="desc">Gráfico gerado a partir da tabela publicada neste artigo.</desc>
<rect width="100%" height="100%" rx="20" fill="#0f172a"/>
<text x="28" y="42" fill="#f8fafc" font-family="system-ui,sans-serif" font-size="23" font-weight="700">Variação em 7 dias</text>
<text x="28" y="70" fill="#94a3b8" font-family="system-ui,sans-serif" font-size="15">Dados do recorte publicado no artigo</text>
<text x="28" y="117" fill="#e2e8f0" font-family="system-ui,sans-serif" font-size="16">Annaïg Butel</text>
<rect x="285" y="95" width="480" height="28" rx="7" fill="#22c55e"/>
<text x="775" y="116" fill="#f8fafc" font-family="system-ui,sans-serif" font-size="15" font-weight="700">+89.5%</text>
<text x="28" y="175" fill="#e2e8f0" font-family="system-ui,sans-serif" font-size="16">Karim Benzema</text>
<rect x="285" y="153" width="301" height="28" rx="7" fill="#22c55e"/>
<text x="596" y="174" fill="#f8fafc" font-family="system-ui,sans-serif" font-size="15" font-weight="700">+56.2%</text>
<text x="28" y="233" fill="#e2e8f0" font-family="system-ui,sans-serif" font-size="16">Maghnes Akliouche</text>
<rect x="285" y="211" width="292" height="28" rx="7" fill="#22c55e"/>
<text x="587" y="232" fill="#f8fafc" font-family="system-ui,sans-serif" font-size="15" font-weight="700">+54.5%</text>
<text x="28" y="291" fill="#e2e8f0" font-family="system-ui,sans-serif" font-size="16">Franck Honorat</text>
<rect x="285" y="269" width="141" height="28" rx="7" fill="#22c55e"/>
<text x="436" y="290" fill="#f8fafc" font-family="system-ui,sans-serif" font-size="15" font-weight="700">+26.3%</text>
<text x="28" y="349" fill="#e2e8f0" font-family="system-ui,sans-serif" font-size="16">Florian Sotoca</text>
<rect x="285" y="327" width="98" height="28" rx="7" fill="#22c55e"/>
<text x="393" y="348" fill="#f8fafc" font-family="system-ui,sans-serif" font-size="15" font-weight="700">+18.2%</text>
<text x="28" y="407" fill="#e2e8f0" font-family="system-ui,sans-serif" font-size="16">Warren Zaïre-Emery</text>
<rect x="285" y="385" width="46" height="28" rx="7" fill="#22c55e"/>
<text x="341" y="406" fill="#f8fafc" font-family="system-ui,sans-serif" font-size="15" font-weight="700">+8.6%</text>
</svg>
